<svg xmlns="http://www.w3.org/2000/svg" xmlns:xlink="http://www.w3.org/1999/xlink" version="1.1" width="529.6786pt" height="295.4312pt" viewBox="0 0 529.6786 295.4312">
<g>
<g id="layer_1" data-name="">
<path transform="matrix(1,0,0,-1,1,294.4312)" d="M280.5701 283.7843C350.0079 267.8482 343.1954 183.2474 457.0228 222.0849 445.6604 239.3646 405.5278 252.2387 381.1062 259.6595 408.2905 258.0083 436.8237 242.5354 457.2269 231.3584 444.1329 286.1433 355.0462 307.6481 280.5701 283.7843" fill="#9bc216" fill-rule="evenodd"/>
<path transform="matrix(1,0,0,-1,1,294.4312)" d="M458.9079 226.4479C598.212 37.1591 208.9344-31.2086 14.5123 36.614 85.9853-2.2975 230.47-11.4602 342.9723 15.2425 476.966 47.046 561.1836 116.9906 458.9079 226.4479" fill="#9bc216" fill-rule="evenodd"/>
<path transform="matrix(1,0,0,-1,1,294.4312)" d="M420.6416 90.5936C327.2111 14.4224 156.041 22.6363 60.0378 52.5433 50.5264 48.6944 40.6925 45.1667 17.5932 48.7593 75.2848 19.2127 337.6925-11.8885 420.6416 90.5936" fill="#9bc216" fill-rule="evenodd"/>
<path transform="matrix(1,0,0,-1,1,294.4312)" d="M483.1413 214.8225C492.9919 218.3533 503.0592 238.3092 506.4576 244.4278 507.8208 235.7271 498.1598 222.5526 491.8263 214.9268L495.4448 215.4101C540.3138 226.7563 527.8791 253.1843 519.4378 287.4733 516.5881 283.3067 518.277 281.8865 508.1513 273.3511 483.0338 252.1769 452.8828 249.234 483.1413 214.8225" fill="#9bc216" fill-rule="evenodd"/>
<path transform="matrix(1,0,0,-1,1,294.4312)" d="M37.2353 103.1457C35.047 94.9589 34.526 89.1286 35.6729 85.5967 36.8252 82.0854 39.708 80.6502 44.3262 81.3115 48.9124 81.968 52.7907 84.3715 55.9553 88.501 59.125 92.651 61.7882 98.7883 63.9765 106.9747 66.1703 115.1813 66.712 121.034 65.5971 124.5705 64.4766 128.0866 61.6255 129.5266 57.039 128.8698 52.4208 128.2085 48.511 125.8004 45.3149 121.6661 42.1132 117.5117 39.4288 111.3523 37.2353 103.1457ZM15.0642 99.9709C18.8257 114.042 24.98 125.5881 33.5217 134.6457 42.0579 143.6837 51.8409 148.9924 62.8393 150.5673 73.8054 152.1377 81.3847 149.315 85.5604 142.0977 89.7466 134.8622 89.9563 124.2275 86.1951 110.1563 82.4389 96.1053 76.3004 84.5614 67.7588 75.5036 59.233 66.4481 49.4765 61.124 38.5101 59.5536 27.5119 57.979 19.9066 60.8168 15.7201 68.0519 11.5339 75.2873 11.3083 85.9198 15.0642 99.9709M112.3393 92.6926 118.243 93.5376C123.5755 94.3016 127.7804 96.4437 130.8586 99.9643 133.9523 103.4875 136.5293 109.1307 138.5946 116.8571 140.5902 124.323 140.8978 129.5838 139.5062 132.6574 138.1303 135.7328 134.9351 136.9114 129.9042 136.1908L123.7306 135.307ZM97.7465 69.5628C92.8267 68.8584 89.6987 69.5463 88.3726 71.6085 87.0466 73.671 87.1702 77.6735 88.7593 83.6181L103.3021 138.022C104.902 144.0068 106.9988 148.3109 109.5769 150.9327 112.155 153.5542 115.9143 155.228 120.8344 155.9324L134.1811 157.8436C140.4343 158.7387 145.2892 159.0301 148.7409 158.6965 152.1768 158.3606 154.8969 157.4028 156.8962 155.8604 160.6258 152.968 162.8118 148.6417 163.4389 142.8795 164.0869 137.1393 163.1968 129.7548 160.7941 120.7678 158.5097 112.2205 155.4982 104.7246 151.7661 98.2998 148.0394 91.895 143.5808 86.5208 138.3642 82.1934 134.8384 79.2247 130.9975 76.9037 126.8892 75.295 122.7756 73.6665 116.1403 72.1964 106.9991 70.8877ZM182.8012 92.1546C181.6829 87.9712 179.9702 84.7037 177.6572 82.332 175.3336 79.9781 172.4791 78.5494 169.0671 78.0608 165.7502 77.5857 163.4683 78.3561 162.2373 80.3744 161.0116 82.4128 160.9475 85.4836 162.055 89.6267L178.4546 150.9763C179.6479 155.4401 181.6577 159.0772 184.4853 161.8883 187.2967 164.6972 190.6118 166.3654 194.4207 166.9107 197.1505 167.3016 199.3062 166.8594 200.8729 165.5824 202.4393 164.3054 203.5905 162.1026 204.3261 158.9737L210.6122 131.7878C211.0354 130.1162 211.3464 128.1396 211.5774 125.8625 211.8081 123.5857 211.9479 120.9107 211.9748 117.8152 212.1644 119.209 212.4442 120.7123 212.7875 122.3399 213.1311 123.9676 213.7201 126.3424 214.5549 129.4654L222.2705 158.3283C223.3672 162.4317 225.144 165.7661 227.6002 168.3315 230.0567 170.8971 232.9376 172.4261 236.2229 172.8964 239.6667 173.3896 241.986 172.7016 243.2069 170.8169 244.4173 168.9497 244.4658 165.9342 243.358 161.7908L226.948 100.4012C225.6582 95.5772 223.706 91.8133 221.0958 89.0722 218.4854 86.3306 215.2655 84.676 211.4249 84.126 208.2033 83.6646 205.7562 84.0458 204.0786 85.2494 202.4008 86.4527 201.1864 88.7046 200.425 92.022L194.1117 119.0494C193.6522 120.9283 193.3415 123.0202 193.1584 125.3044 192.9753 127.588 192.9563 130.0876 193.0759 132.7612 192.8486 131.1117 192.5206 129.3707 192.1184 127.5231 191.7159 125.6749 191.1912 123.5401 190.5276 121.0581ZM266.4374 132.844C264.2491 124.6575 263.7283 118.8272 264.875 115.2952 266.0272 111.7837 268.9101 110.3485 273.5283 111.0098 278.1147 111.6663 281.9928 114.0698 285.1574 118.1993 288.3271 122.3493 290.9903 128.4866 293.1786 136.673 295.3723 144.8799 295.9143 150.7323 294.7992 154.2688 293.6786 157.7852 290.8278 159.2249 286.2414 158.5681 281.6229 157.9068 277.7131 155.499 274.517 151.3644 271.3153 147.2102 268.6311 141.0506 266.4374 132.844ZM244.2662 129.6692C248.0278 143.7406 254.1821 155.2864 262.7237 164.3443 271.26 173.382 281.0432 178.6907 292.0414 180.2656 303.0075 181.836 310.5867 179.0133 314.7625 171.796 318.9487 164.5605 319.1587 153.9258 315.3971 139.8546 311.6409 125.8036 305.5025 114.2597 296.9609 105.2022 288.4351 96.1464 278.6786 90.8226 267.7122 89.2522 256.714 87.6773 249.1087 90.5151 244.9222 97.7505 240.736 104.9856 240.5103 115.6181 244.2662 129.6692M350.2295 112.4124C348.594 108.5204 346.7285 105.5392 344.6597 103.4527 342.5751 101.3641 340.266 100.148 337.7265 99.7843L331.918 98.9527C329.506 98.6071 327.7259 99.2568 326.5838 100.9222 325.4573 102.5895 324.9947 105.141 325.2328 108.6018L329.7597 167.6738C329.8425 168.783 329.9618 169.7434 330.1072 170.5728 330.2527 171.402 330.4295 172.1781 330.6169 172.8788 331.537 176.3215 333.2594 179.2244 335.768 181.5857 338.2818 183.9671 341.1626 185.3804 344.4163 185.8462 346.7968 186.1875 348.5874 185.5774 349.7828 183.9966 350.9623 182.414 351.3677 180.1043 350.9719 177.0831L345.128 131.2974 364.6871 178.3732C366.243 182.1957 368.0816 185.0771 370.1815 186.9948 372.2975 188.9147 374.9029 190.0962 377.9974 190.5395 381.0447 190.976 383.1528 190.4689 384.3643 189.0065 385.56 187.5413 385.9432 184.9782 385.509 181.3547L380.2808 136.3309 398.4877 183.8869C399.6711 186.9437 401.3555 189.5335 403.5351 191.6359 405.7152 193.7384 408.0087 194.9525 410.3892 195.2932 413.6426 195.7592 415.9828 195.0934 417.3996 193.3132 418.811 191.5135 419.0675 188.9323 418.1579 185.5293 417.9651 184.8087 417.7037 184.0014 417.3676 183.0869 417.0368 182.1923 416.6266 181.1713 416.1101 180.0388L388.2858 117.6307C386.619 113.9655 384.717 111.075 382.5422 108.9351 380.3837 106.7973 378.1006 105.5656 375.7201 105.2249L369.9116 104.3929C367.3406 104.0247 365.4972 104.6656 364.3866 106.3352 363.2922 108.0071 362.9463 110.6527 363.386 114.2963L368.1351 154.9585ZM423.6559 118.2753C422.2304 115.6263 420.5529 113.5191 418.6074 111.9506 416.6779 110.3845 414.5916 109.4312 412.3539 109.1109 409.3226 108.6769 407.1991 109.4125 405.9782 111.2973 404.7735 113.1843 404.6604 115.9594 405.629 119.5826 405.934 120.7233 406.2543 121.7509 406.5902 122.6653 406.921 123.5597 407.2513 124.3383 407.5971 124.9461L440.0453 186.438C442.6625 191.4327 445.0425 194.9689 447.2011 197.049 449.3438 199.1268 451.8116 200.3655 454.6049 200.7655L460.9692 201.6768C463.7622 202.0771 465.7277 201.5498 466.844 200.0735 467.9762 198.599 468.5743 195.4125 468.6435 190.5327L469.6656 133.8341C469.7113 133.2054 469.6557 132.427 469.5316 131.5046 469.4071 130.5822 469.203 129.5906 468.9193 128.5296 467.9719 124.9866 466.3023 121.9949 463.9207 119.5943 461.5231 117.1911 458.8537 115.7695 455.87 115.342 453.5529 115.0104 451.7617 115.3891 450.5488 116.5051 449.3151 117.5992 448.6757 119.3746 448.6201 121.8498L448.4446 126.6758 426.5439 123.5398ZM435.4807 142.2408 449.2877 144.2177 450.4414 173.1424Z" fill="#008bd2"/>
</g>
</g>
</svg>